<svg width="256" height="256" viewBox="0 0 256 256" fill="none" xmlns="http://www.w3.org/2000/svg">
<rect width="256" height="256" rx="8" fill="#4E4D93"/>
<path d="M240 212H224V140L226.34 142.34C227.844 143.841 229.882 144.683 232.007 144.682C234.132 144.68 236.169 143.834 237.67 142.33C239.171 140.826 240.013 138.788 240.012 136.663C240.01 134.538 239.164 132.501 237.66 131L139.31 32.68C136.31 29.6817 132.242 27.9974 128 27.9974C123.758 27.9974 119.69 29.6817 116.69 32.68L18.34 131C16.8402 132.501 15.9981 134.537 15.9991 136.659C16 138.781 16.8439 140.815 18.345 142.315C19.8461 143.815 21.8816 144.657 24.0035 144.656C26.1255 144.655 28.1602 143.811 29.66 142.31L32 140V212H16C13.8783 212 11.8434 212.843 10.3431 214.343C8.84285 215.843 8 217.878 8 220C8 222.122 8.84285 224.157 10.3431 225.657C11.8434 227.157 13.8783 228 16 228H240C242.122 228 244.157 227.157 245.657 225.657C247.157 224.157 248 222.122 248 220C248 217.878 247.157 215.843 245.657 214.343C244.157 212.843 242.122 212 240 212ZM152 212H104V164C104 162.939 104.421 161.922 105.172 161.172C105.922 160.421 106.939 160 108 160H148C149.061 160 150.078 160.421 150.828 161.172C151.579 161.922 152 162.939 152 164V212Z" fill="#FAFAFA"/>
</svg>
